{
    "asset": {
        "generator": "Noesis",
        "version": "2.0"
    },
    "scene": 0,
    "scenes": [
        {
            "nodes": [
                0,
                1
            ]
        }
    ],
    "nodes": [
        {
            "name": "weapon_noesis_meshnode_0000",
            "translation": [
                0.0,
                0.0,
                0.0
            ],
            "rotation": [
                0.0,
                0.0,
                0.0,
                1.0
            ],
            "scale": [
                1.0,
                1.0,
                1.0
            ],
            "mesh": 0
        },
        {
            "name": "hands_noesis_meshnode_0001",
            "translation": [
                0.0,
                0.0,
                0.0
            ],
            "rotation": [
                0.0,
                0.0,
                0.0,
                1.0
            ],
            "scale": [
                1.0,
                1.0,
                1.0
            ],
            "mesh": 1
        }
    ],
    "meshes": [
        {
            "primitives": [
                {
                    "attributes": {
                        "POSITION": 1,
                        "NORMAL": 2,
                        "TANGENT": 3,
                        "TEXCOORD_0": 4
                    },
                    "indices": 0,
                    "material": 0,
                    "mode": 4
                }
            ],
            "name": "weapon"
        },
        {
            "primitives": [
                {
                    "attributes": {
                        "POSITION": 6,
                        "NORMAL": 7,
                        "TANGENT": 8,
                        "TEXCOORD_0": 9
                    },
                    "indices": 5,
                    "material": 0,
                    "mode": 4
                }
            ],
            "name": "hands"
        }
    ],
    "materials": [
        {
            "pbrMetallicRoughness": {
                "metallicFactor": 0.0
            },
            "name": "models/players/model/skin.tga"
        }
    ],
    "accessors": [
        {
            "bufferView": 0,
            "byteOffset": 0,
            "componentType": 5123,
            "count": 1725,
            "max": [
                661
            ],
            "min": [
                0
            ],
            "type": "SCALAR"
        },
        {
            "bufferView": 1,
            "byteOffset": 0,
            "componentType": 5126,
            "count": 662,
            "max": [
                8.953125,
                65.234375,
                -3.515625
            ],
            "min": [
                3.375,
                2.390625,
                -16.203125
            ],
            "type": "VEC3"
        },
        {
            "bufferView": 2,
            "byteOffset": 0,
            "componentType": 5126,
            "count": 662,
            "max": [
                0.953632175922393798828125,
                0.996172249317169189453125,
                1.0
            ],
            "min": [
                -0.997932851314544677734375,
                -0.999506771564483642578125,
                -0.998103320598602294921875
            ],
            "type": "VEC3"
        },
        {
            "bufferView": 3,
            "byteOffset": 0,
            "componentType": 5126,
            "count": 662,
            "max": [
                0.9999811649322509765625,
                0.99994242191314697265625,
                0.9997951984405517578125,
                1.0
            ],
            "min": [
                -0.999994456768035888671875,
                -0.999982416629791259765625,
                -0.997401535511016845703125,
                -1.0
            ],
            "type": "VEC4"
        },
        {
            "bufferView": 4,
            "byteOffset": 0,
            "componentType": 5126,
            "count": 662,
            "max": [
                0.99724066257476806640625,
                0.9966413974761962890625
            ],
            "min": [
                0.00357854366302490234375,
                0.00402343273162841796875
            ],
            "type": "VEC2"
        },
        {
            "bufferView": 0,
            "byteOffset": 3452,
            "componentType": 5123,
            "count": 252,
            "max": [
                114
            ],
            "min": [
                0
            ],
            "type": "SCALAR"
        },
        {
            "bufferView": 5,
            "byteOffset": 0,
            "componentType": 5126,
            "count": 115,
            "max": [
                7.203125,
                27.375,
                -7.203125
            ],
            "min": [
                -5.0,
                5.671875,
                -13.671875
            ],
            "type": "VEC3"
        },
        {
            "bufferView": 6,
            "byteOffset": 0,
            "componentType": 5126,
            "count": 115,
            "max": [
                0.986821830272674560546875,
                0.991632759571075439453125,
                0.995146930217742919921875
            ],
            "min": [
                -0.99384272098541259765625,
                -0.700900256633758544921875,
                -0.8369891643524169921875
            ],
            "type": "VEC3"
        },
        {
            "bufferView": 7,
            "byteOffset": 0,
            "componentType": 5126,
            "count": 115,
            "max": [
                0.998380601406097412109375,
                0.8563654422760009765625,
                0.994851171970367431640625,
                1.0
            ],
            "min": [
                -0.998855054378509521484375,
                -0.99728500843048095703125,
                -0.997778475284576416015625,
                -1.0
            ],
            "type": "VEC4"
        },
        {
            "bufferView": 8,
            "byteOffset": 0,
            "componentType": 5126,
            "count": 115,
            "max": [
                0.98758614063262939453125,
                0.98915112018585205078125
            ],
            "min": [
                0.0059130489826202392578125,
                0.0058992207050323486328125
            ],
            "type": "VEC2"
        }
    ],
    "bufferViews": [
        {
            "buffer": 0,
            "byteOffset": 0,
            "byteLength": 3956,
            "target": 34963
        },
        {
            "buffer": 0,
            "byteOffset": 3956,
            "byteLength": 7944,
            "byteStride": 12,
            "target": 34962
        },
        {
            "buffer": 0,
            "byteOffset": 11900,
            "byteLength": 7944,
            "byteStride": 12,
            "target": 34962
        },
        {
            "buffer": 0,
            "byteOffset": 19844,
            "byteLength": 10592,
            "byteStride": 16,
            "target": 34962
        },
        {
            "buffer": 0,
            "byteOffset": 30436,
            "byteLength": 5296,
            "byteStride": 8,
            "target": 34962
        },
        {
            "buffer": 0,
            "byteOffset": 35732,
            "byteLength": 1380,
            "byteStride": 12,
            "target": 34962
        },
        {
            "buffer": 0,
            "byteOffset": 37112,
            "byteLength": 1380,
            "byteStride": 12,
            "target": 34962
        },
        {
            "buffer": 0,
            "byteOffset": 38492,
            "byteLength": 1840,
            "byteStride": 16,
            "target": 34962
        },
        {
            "buffer": 0,
            "byteOffset": 40332,
            "byteLength": 920,
            "byteStride": 8,
            "target": 34962
        }
    ],
    "buffers": [
        {
            "byteLength": 41252,
            "uri": "tris_highout0.bin"
        }
    ]
}
